# xmcd
#
# Track frame offsets:
# 150
# 12965
# 24735
# 33335
# 45020
# 58877
# 67940
# 79855
# 90227
# 102660
# 118787
# 127457
# 142385
# 154625
#
# Disc length: 2257 seconds
#
# Revision: 0
# Processed by: cddbd v1.5PL3 Copyright (c) Steve Scherf et al.
# Submitted via: plextools 2.11
#
DISCID=be08cf0e
DTITLE=Jivin' Rascals - Jivin' Rascals
DYEAR=1900
DGENRE=Rock and Roll
TTITLE0=Jivin' Rascals - That's Rock
TTITLE1=Jivin' Rascals - It's Only A Papermoon
TTITLE2=Jivin' Rascals - Come On Let's Go
TTITLE3=Jivin' Rascals - Rock The Universe
TTITLE4=Jivin' Rascals - Saxy Thing
TTITLE5=Jivin' Rascals - Ten Cups Of Coffee
TTITLE6=Jivin' Rascals - Linda Lou
TTITLE7=Jivin' Rascals - I'll Be True To You
TTITLE8=Jivin' Rascals - London Rock
TTITLE9=Jivin' Rascals - Rascals' Rock
TTITLE10=Jivin' Rascals - Pretty Baby
TTITLE11=Jivin' Rascals - Pussy Cat
TTITLE12=Jivin' Rascals - Marina Marina
TTITLE13=Jivin' Rascals - Jukebox Baby
EXTD=
EXTT0=
EXTT1=
EXTT2=
EXTT3=
EXTT4=
EXTT5=
EXTT6=
EXTT7=
EXTT8=
EXTT9=
EXTT10=
EXTT11=
EXTT12=
EXTT13=
PLAYORDER=
